PathFileType	4	(X/Y/Z)	C:/Users/opensim2020/Desktop/walking_exp_matlab/subject03_walking16_run.trc	
DataRate	CameraRate	NumFrames	NumMarkers	Units	OrigDataRate	OrigDataStartFrame	OrigNumFrames	
100.00	100.00	4	49	mm	100.00	272	131	
Frame#	Time	RKNE			RTOE			RWRB			LTHI			RELB			RFRM			RUPA			RASI			LTIB			RWRA			RTHI			LSHO			LTOE			RTIB			LWRA			CLAV			LASI			RSHO			RFHD			STRN			LHEE			RFIN			RBHD			LFRM			C7			LWRB			LFIN			LUPA			LBHD			LELB			RANK			RHEE			RBAK			LPSI			T10			LFHD			RPSI			LKNE			LANK			*39			*40			*41			*42			*43			*44			*45			*46			*47			*48			
		X1	Y1	Z1	X2	Y2	Z2	X3	Y3	Z3	X4	Y4	Z4	X5	Y5	Z5	X6	Y6	Z6	X7	Y7	Z7	X8	Y8	Z8	X9	Y9	Z9	X10	Y10	Z10	X11	Y11	Z11	X12	Y12	Z12	X13	Y13	Z13	X14	Y14	Z14	X15	Y15	Z15	X16	Y16	Z16	X17	Y17	Z17	X18	Y18	Z18	X19	Y19	Z19	X20	Y20	Z20	X21	Y21	Z21	X22	Y22	Z22	X23	Y23	Z23	X24	Y24	Z24	X25	Y25	Z25	X26	Y26	Z26	X27	Y27	Z27	X28	Y28	Z28	X29	Y29	Z29	X30	Y30	Z30	X31	Y31	Z31	X32	Y32	Z32	X33	Y33	Z33	X34	Y34	Z34	X35	Y35	Z35	X36	Y36	Z36	X37	Y37	Z37	X38	Y38	Z38	X39	Y39	Z39	X40	Y40	Z40	X41	Y41	Z41	X42	Y42	Z42	X43	Y43	Z43	X44	Y44	Z44	X45	Y45	Z45	X46	Y46	Z46	X47	Y47	Z47	X48	Y48	Z48	X49	Y49	Z49	

82	0.810	374.21811	769.62354	486.63446	305.95673	451.96777	83.38439	389.58481	1191.61218	1113.41870	85.72110	1035.07312	653.51990	514.43640	1012.41217	1095.10852	446.44086	1111.48950	1106.56958	497.90994	981.49554	1175.71924	361.72598	996.42853	924.53198	132.17575	1155.02197	305.99149	372.75998	1160.27466	1152.49268	406.39825	833.56549	658.54266	109.86460	921.73389	1401.26648	211.55161	1372.70642	73.43961	376.55820	610.55457	369.56412	16.90625	855.80542	1025.84485	237.96550	995.28784	1341.33350	134.76759	1003.16772	933.94012	394.82727	962.91980	1373.18652	322.75653	969.22491	1626.38062	222.72693	1045.76294	1177.68054	218.47957	1185.42993	79.12818	360.53427	1238.71497	1160.98645	312.27954	863.16968	1552.87976	-39.38694	803.40387	1126.27747	257.47192	868.97052	1406.39575	-40.88333	857.00641	1024.57605	-17.31759	869.09033	934.08929	-9.92063	805.22168	1308.07776	182.12917	871.82288	1552.69812	-57.81367	743.13098	1222.47437	336.17136	443.77603	231.70427	283.43607	406.69012	258.95499	357.26257	846.95770	1236.06592	171.48778	846.22174	973.51758	248.14778	843.81390	1104.24524	190.81433	983.20483	1627.28760	321.32184	847.87585	986.05066	129.52499	1125.03809	499.73047	177.29143	1217.78503	105.58808																						234.50409	884.40540	1664.05737						 
83	0.820	373.80542	810.86017	482.16922	313.85110	475.50519	98.08781	389.05667	1222.81836	1107.98096	84.43928	1063.51111	646.40784	515.27814	1043.79333	1093.93762	446.36594	1142.96094	1103.36096	497.88315	1013.61963	1175.24219	361.24829	1030.72180	924.69476	135.86415	1187.45679	305.02667	371.88925	1192.34045	1147.54712	406.20520	873.52167	655.09167	108.45676	956.26520	1399.92542	211.41373	1408.93848	72.95780	377.64862	643.82281	374.30377	16.84350	891.99005	1026.08508	237.01318	1029.03857	1341.11121	134.33463	1035.49915	931.93896	394.56250	996.36517	1373.21033	322.08862	1000.91412	1626.05005	221.99983	1079.37402	1177.15613	224.13899	1221.89124	80.96574	359.02338	1271.06934	1154.01074	311.22855	895.59741	1551.95251	-40.92875	839.48395	1125.86401	256.45462	902.09906	1405.49475	-40.73411	893.36841	1023.87616	-15.81746	903.70343	933.10638	-12.06568	840.62262	1307.11926	181.17546	904.74377	1552.00183	-61.14917	778.57971	1221.72717	336.70288	469.75681	247.13802	281.94275	433.25543	273.42606	355.66949	880.48328	1234.76575	171.75192	879.43201	971.48370	247.68677	877.58868	1103.17810	190.18134	1015.94507	1627.56030	321.85669	881.72821	985.85522	130.70523	1155.91248	496.09238	182.15523	1253.13489	106.21893																						234.12384	915.78308	1663.06836						 
84	0.830	373.35175	854.36792	476.26938	320.80310	500.56296	113.23372	389.64636	1253.89282	1098.93835	83.37300	1092.27649	639.11603	516.14807	1074.13074	1091.41016	446.05719	1173.12476	1097.19104	497.73215	1044.45593	1173.59180	360.92807	1064.35449	924.10919	138.86079	1218.10498	303.32367	371.35370	1224.62158	1139.06628	405.39377	914.12665	650.33643	106.52221	990.80389	1397.59143	215.31886	1436.96997	68.65106	378.35342	680.38000	378.60751	17.75558	929.50769	1023.54498	236.19296	1062.85083	1340.08325	133.88303	1067.15540	928.84320	394.48941	1029.86182	1372.44739	321.53470	1032.83716	1625.32300	221.68869	1112.65942	1175.63416	228.31264	1250.09375	79.55820	358.46069	1303.72534	1142.61145	310.06778	927.87079	1550.41833	-42.52254	877.59039	1122.10461	255.20290	935.43958	1403.90271	-39.98810	932.04803	1020.39838	-13.46310	940.94574	929.56177	-15.41753	877.63672	1303.03259	180.21513	937.67297	1550.85571	-64.83466	816.34113	1217.52075	337.66595	498.86212	262.03552	281.70096	463.41904	288.55078	354.06644	913.67609	1232.68774	172.28310	912.00366	968.10193	247.69296	910.64587	1100.94421	189.70555	1048.35950	1627.10352	322.44086	914.65674	984.48798	131.54066	1188.14514	494.12415	186.37527	1281.21021	103.85018																						233.18987	947.46777	1661.48145						 
85	0.840	373.78143	900.07373	469.30600	326.05066	527.22162	128.12897	390.39975	1283.70313	1086.21838	83.87904	1122.51978	633.11938	516.34839	1102.76086	1087.49573	446.47345	1202.85791	1088.65942	498.10114	1074.27502	1171.33191	360.89139	1097.58008	922.73926	141.66911	1245.68005	300.13519	371.40262	1256.87451	1127.33508	404.97498	955.25574	644.74713	104.48615	1025.39392	1394.53577	221.92046	1457.48596	59.68730	379.17493	720.85986	381.04419	19.27083	969.06183	1018.49408	235.28294	1096.54565	1338.23584	133.37547	1098.50769	925.15710	394.37094	1063.55469	1370.82727	321.07950	1065.10754	1623.97925	221.68997	1145.69482	1173.11646	232.81473	1270.80151	76.22483	358.85175	1336.24524	1126.93494	309.04605	960.27136	1548.47693	-43.86945	917.68286	1115.44324	253.59488	969.07703	1401.64539	-38.26024	972.70624	1014.36798	-10.13438	980.82019	923.85718	-19.53388	915.93365	1296.35559	179.16435	970.51349	1549.13452	-68.58817	856.33624	1210.02917	339.88361	532.35260	276.03766	283.45041	497.45950	304.07571	352.36096	946.59979	1230.44336	173.08147	943.96368	963.71082	247.93190	943.29108	1098.08606	189.20097	1080.74219	1625.87341	323.14166	946.91003	981.55377	132.21356	1220.84949	493.18512	190.95587	1303.00830	99.23660																						232.32274	979.04034	1659.19202						 
